<svg xmlns="http://www.w3.org/2000/svg" width="751.061" height="657.266" viewBox="0 0 751.061 657.266">
  <g id="arrow-left-short" transform="translate(-8.999 -10.124)">
    <path id="Path_6818" data-name="Path 6818" d="M370.876,23.913a46.937,46.937,0,0,1,0,66.463l-248.5,248.372,248.5,248.413a47,47,0,0,1-66.463,66.463L22.788,372a46.937,46.937,0,0,1,0-66.463L304.412,23.913a46.937,46.937,0,0,1,66.463,0Z" transform="translate(0 0)" fill-rule="evenodd"/>
    <path id="Path_6819" data-name="Path 6819" d="M10.125,63.812A46.937,46.937,0,0,1,57.062,16.875H667.248a46.937,46.937,0,0,1,0,93.875H57.062A46.937,46.937,0,0,1,10.125,63.812Z" transform="translate(45.874 274.936)" fill-rule="evenodd"/>
  </g>
</svg>
