<svg id="Group_2378" data-name="Group 2378" xmlns="http://www.w3.org/2000/svg" width="208" height="208.05" viewBox="0 0 208 208.05">
  <path id="Path_5486" data-name="Path 5486" d="M-1100.775,1121.072h3.249a2.633,2.633,0,0,0,.5.332q48.239,18.082,96.476,36.16c3.852,1.444,5,3.15,5,7.341q0,80.934,0,161.866v2.3H-998.2q-56.055,0-112.107.048c-3.612.008-6.118-1.176-7.53-4.514v-3.251c1.44-3.458,4.063-4.809,7.732-4.49,1.581.139,3.183.023,4.866.023v-2.922q0-92.47-.058-184.938C-1105.3,1125.288-1104.221,1122.627-1100.775,1121.072Zm19.915,195.68h24.211v-36.419c-6.11,0-12.064-.081-18.015.03a5.94,5.94,0,0,0-6.168,6.187C-1080.92,1296.56-1080.86,1306.573-1080.86,1316.752Zm36.647-.007h24.269c0-10.223.064-20.3-.037-30.376a5.653,5.653,0,0,0-5.524-5.923c-6.2-.213-12.409-.061-18.707-.061Zm-24.625-121.734c1.955,0,3.916.042,5.873-.01,3.774-.1,6.483-2.692,6.451-6.123a6.143,6.143,0,0,0-6.332-6.03c-3.913-.092-7.834-.1-11.75,0a6.129,6.129,0,0,0-6.246,6.112c.033,3.367,2.673,5.916,6.332,6.034C-1072.624,1195.06-1070.73,1195.009-1068.838,1195.011Zm36.537,0c1.957,0,3.916.042,5.874-.007,3.789-.095,6.484-2.661,6.473-6.1a6.13,6.13,0,0,0-6.308-6.055q-5.868-.138-11.748,0a6.13,6.13,0,0,0-6.27,6.089c.017,3.365,2.653,5.933,6.307,6.058C-1036.085,1195.06-1034.191,1195.007-1032.3,1195.011Zm-36.54,24.377c1.958,0,3.919.041,5.876-.01,3.777-.1,6.481-2.7,6.451-6.126a6.123,6.123,0,0,0-6.332-6.029c-3.913-.089-7.834-.1-11.75,0a6.112,6.112,0,0,0-6.246,6.11c.033,3.369,2.672,5.916,6.33,6.034C-1072.624,1219.436-1070.73,1219.383-1068.841,1219.388Zm36.579-.007c2.025,0,4.052.063,6.076-.013a6.16,6.16,0,0,0,6.231-6.133,6.1,6.1,0,0,0-6.143-6c-3.98-.119-7.97-.11-11.952-.006a6.114,6.114,0,0,0-6.23,6.121c.044,3.372,2.682,5.905,6.344,6.024C-1036.046,1219.436-1034.153,1219.385-1032.262,1219.381Zm-36.53,24.381c1.959,0,3.918.046,5.875-.01,3.683-.105,6.318-2.589,6.4-5.969.085-3.4-2.624-6.108-6.376-6.187q-5.776-.127-11.551,0c-3.766.078-6.473,2.758-6.4,6.166.069,3.382,2.7,5.883,6.374,5.994C-1072.576,1243.808-1070.686,1243.762-1068.792,1243.762Zm36.514,0c1.959,0,3.918.041,5.877-.01,3.776-.1,6.479-2.69,6.447-6.124a6.13,6.13,0,0,0-6.329-6.031c-3.915-.089-7.836-.1-11.75.006a6.114,6.114,0,0,0-6.246,6.11c.034,3.367,2.672,5.915,6.329,6.035C-1036.061,1243.812-1034.17,1243.759-1032.278,1243.762Zm-36.605,24.371c2.026,0,4.055.06,6.08-.011a6.162,6.162,0,0,0,6.29-6.074,6.127,6.127,0,0,0-6.286-6.071q-5.875-.145-11.754,0a6.123,6.123,0,0,0-6.288,6.066,6.159,6.159,0,0,0,6.286,6.079C-1072.668,1268.19-1070.774,1268.133-1068.884,1268.133Zm36.71,0c1.957,0,3.918.05,5.874-.014,3.662-.114,6.3-2.646,6.346-6.017a6.114,6.114,0,0,0-6.229-6.124c-3.982-.105-7.973-.113-11.953,0a6.1,6.1,0,0,0-6.143,6,6.158,6.158,0,0,0,6.229,6.133C-1036.1,1268.193-1034.133,1268.133-1032.174,1268.136Z" transform="translate(1117.838 -1121.072)" fill="#5fabd6"/>
  <path id="Path_5487" data-name="Path 5487" d="M-1004.044,1178.123q9.05,3.029,18.032,6.043,18.712,6.268,37.425,12.535c4.183,1.405,5.332,3.021,5.332,7.46q0,49.759,0,99.521v2.771c1.979,0,3.908,0,5.839,0,4.156.012,6.771,2.393,6.754,6.135-.019,3.65-2.624,6.045-6.643,6.045q-32.5.006-64.994,0h-1.745Zm48.607,128.236v-1.549c0-9.27.014-18.541-.006-27.812q-.015-7.093-7.137-7.109-11.064-.026-22.128,0c-4.983.008-7.291,2.334-7.295,7.363q-.013,13.6,0,27.2v1.893h12.234v-24.111h12.205v24.127Zm-18.49-73.035c3.92,0,7.841.029,11.76-.008,3.958-.041,6.7-2.562,6.7-6.084s-2.729-6.065-6.7-6.086c-7.7-.042-15.409-.058-23.113.03a8.627,8.627,0,0,0-3.846,1,5.74,5.74,0,0,0-2.566,6.645,5.936,5.936,0,0,0,6,4.486C-981.768,1233.375-977.846,1233.318-973.927,1233.324Zm.03,24.373c3.919,0,7.839.033,11.759-.006,3.947-.043,6.694-2.594,6.672-6.109s-2.746-6.041-6.724-6.061q-11.559-.062-23.116,0c-3.959.023-6.694,2.594-6.672,6.111s2.759,6.02,6.726,6.061C-981.468,1257.729-977.682,1257.7-973.9,1257.7Z" transform="translate(1138.662 -1110.632)" fill="#5fabd6"/>
</svg>
