<svg xmlns="http://www.w3.org/2000/svg" width="263.333" height="263.333" viewBox="0 0 263.333 263.333">
  <path id="pencil" d="M63.1,241.577l15.819-15.819L38.067,184.91,22.249,200.729v18.6H44.5v22.249H63.1ZM154,80.275q0-3.827-3.827-3.827a4.019,4.019,0,0,0-2.952,1.216L53.018,171.872a4.019,4.019,0,0,0-1.216,2.952q0,3.827,3.827,3.827a4.019,4.019,0,0,0,2.952-1.216l94.208-94.208A4.019,4.019,0,0,0,154,80.275ZM144.615,46.9l72.308,72.308L72.308,263.825H0V191.518ZM263.333,63.589a21.289,21.289,0,0,1-6.43,15.641l-28.856,28.856L155.739,35.778,184.6,7.1A20.652,20.652,0,0,1,200.236.492,21.582,21.582,0,0,1,216.055,7.1L256.9,47.77A22.262,22.262,0,0,1,263.333,63.589Z" transform="translate(0 -0.492)"/>
</svg>
