<svg id="Group_2382" data-name="Group 2382" xmlns="http://www.w3.org/2000/svg" width="504.399" height="446.683" viewBox="0 0 504.399 446.683">
  <g id="Group_2151" data-name="Group 2151" transform="translate(43.03 55.135)">
    <path id="Path_5473" data-name="Path 5473" d="M-1625.712,1011.919l5.384,3.3v187.632a202.171,202.171,0,0,1-131.286-51.024,83.549,83.549,0,0,0,48.586-75.915,83.564,83.564,0,0,0-83.566-83.572,83.162,83.162,0,0,0-33.331,6.914,202.049,202.049,0,0,1,22.6-92.454Z" transform="translate(1819.926 -811.3)" fill="#6ddbff"/>
    <path id="Path_5474" data-name="Path 5474" d="M-1609.919,1006.67l-5.9,3.616-6.116-3.754-171.15-104.825a203.569,203.569,0,0,1,99.674-84.991,83.955,83.955,0,0,0-2.523,20.461,83.566,83.566,0,0,0,83.57,83.57,83.575,83.575,0,0,0,83.58-83.57,84.484,84.484,0,0,0-1.229-14.365,203.729,203.729,0,0,1,87.3,81.449Z" transform="translate(1821.541 -816.717)" fill="#6ddbff"/>
    <path id="Path_5475" data-name="Path 5475" d="M-1531.349,1074.912a83.518,83.518,0,0,0,41.705,72.343,202.053,202.053,0,0,1-130.662,55.276V1015.206l2.226-1.369L-1447.4,909.3a202.007,202.007,0,0,1,21.19,84.864,83.239,83.239,0,0,0-21.574-2.821A83.564,83.564,0,0,0-1531.349,1074.912Z" transform="translate(1831.928 -811.149)" fill="#6ddbff"/>
  </g>
  <path id="Path_5476" data-name="Path 5476" d="M-1619.042,764.709a75.134,75.134,0,0,0-75.134,75.13,75.133,75.133,0,0,0,75.134,75.132,75.133,75.133,0,0,0,75.13-75.132A75.133,75.133,0,0,0-1619.042,764.709Zm29.97,31.6a12.492,12.492,0,0,1,12.5,12.5,12.5,12.5,0,0,1-12.5,12.5,12.5,12.5,0,0,1-12.5-12.5A12.493,12.493,0,0,1-1589.072,796.312Zm-59.092,0a12.5,12.5,0,0,1,12.5,12.5,12.5,12.5,0,0,1-12.5,12.5,12.5,12.5,0,0,1-12.5-12.5A12.493,12.493,0,0,1-1648.165,796.312Zm72.839,51.341a43.6,43.6,0,0,1-43.3,38.441,43.6,43.6,0,0,1-43.294-38.441,4.6,4.6,0,0,1,4.583-5.152,4.507,4.507,0,0,1,3.06,1.186,4.734,4.734,0,0,1,1.519,2.949,34.382,34.382,0,0,0,34.132,30.235,34.4,34.4,0,0,0,34.139-30.235,4.638,4.638,0,0,1,4.578-4.135A4.6,4.6,0,0,1-1575.325,847.653Z" transform="translate(1870.517 -764.709)" fill="#6ddbff"/>
  <path id="Path_5477" data-name="Path 5477" d="M-1451.328,995.562a75.132,75.132,0,0,0-75.123,75.132,75.121,75.121,0,0,0,75.123,75.12,75.119,75.119,0,0,0,75.127-75.12A75.13,75.13,0,0,0-1451.328,995.562Zm29.97,31.592a12.5,12.5,0,0,1,12.5,12.5,12.493,12.493,0,0,1-12.5,12.5,12.494,12.494,0,0,1-12.5-12.5A12.5,12.5,0,0,1-1421.358,1027.154Zm-59.081,0a12.5,12.5,0,0,1,12.5,12.5,12.5,12.5,0,0,1-12.5,12.5,12.494,12.494,0,0,1-12.5-12.5A12.5,12.5,0,0,1-1480.439,1027.154Zm68.26,89.793a4.646,4.646,0,0,1-4.59-4.146,34.383,34.383,0,0,0-34.128-30.224,34.368,34.368,0,0,0-34.132,30.224,4.822,4.822,0,0,1-1.519,2.958,4.556,4.556,0,0,1-3.074,1.187,4.615,4.615,0,0,1-4.579-5.152,43.624,43.624,0,0,1,43.3-38.451,43.622,43.622,0,0,1,43.3,38.451A4.615,4.615,0,0,1-1412.179,1116.947Z" transform="translate(1880.601 -750.828)" fill="#6ddbff"/>
  <path id="Path_5478" data-name="Path 5478" d="M-1785.4,995.531a75.127,75.127,0,0,0-75.119,75.132,75.128,75.128,0,0,0,75.119,75.13,75.133,75.133,0,0,0,75.13-75.13A75.132,75.132,0,0,0-1785.4,995.531Zm29.967,31.6a12.5,12.5,0,0,1,12.5,12.5,12.5,12.5,0,0,1-12.5,12.5,12.5,12.5,0,0,1-12.5-12.5A12.494,12.494,0,0,1-1755.429,1027.133Zm-59.078,0a12.492,12.492,0,0,1,12.5,12.5,12.5,12.5,0,0,1-12.5,12.5,12.5,12.5,0,0,1-12.5-12.5A12.5,12.5,0,0,1-1814.507,1027.133Zm68.26,82.892a4.429,4.429,0,0,1-4.59-3.478c-2.048-14.342-16.546-25.462-34.125-25.462-17.6,0-32.091,11.12-34.136,25.453a3.857,3.857,0,0,1-1.519,2.492,5.062,5.062,0,0,1-3.074.995c-2.755,0-4.9-2.026-4.578-4.338,2.559-18.222,20.968-32.365,43.307-32.365s40.737,14.142,43.3,32.365C-1741.349,1108-1743.491,1110.025-1746.246,1110.025Z" transform="translate(1860.515 -750.829)" fill="#6ddbff"/>
</svg>
