<svg xmlns="http://www.w3.org/2000/svg" width="645.616" height="569.969" viewBox="0 0 645.616 569.969">
  <g id="Group_2384" data-name="Group 2384" transform="translate(-3342.83 200.922)">
    <path id="Path_6789" data-name="Path 6789" d="M-249.579,1580.563c-57.047-11.246-105.689-43.706-159.391-63.43-3.167-1.163-6.976-6.215-6.992-9.478-.3-59.83-.066-119.662.109-179.494,0-.792.7-1.58,1.091-2.362,67.136-5.862,133-4.745,190.867,36.789,12.361,8.87,25.372,12.172,40.341,11.164,12.54-.843,25.188-.372,37.779-.08,5.806.136,11.828.431,17.332,2.069,11.05,3.287,20.66,10.693,20.615,22.2-.033,8.228-4.956,18.28-10.947,24.256-12.862,12.833-30.3,17.142-48.161,17.8-13,.475-26.063-.3-39.085-.824-9.623-.389-17.954,2.177-18.64,12.8-.668,10.375,6.608,15.632,16.554,15.009,22.366-1.393,45.027-1.711,66.938-5.831,25.646-4.824,44.118-20.386,54.449-45.464,2.721-6.606,9.348-12.978,15.8-16.426,24.9-13.294,50.439-25.4,75.77-37.88,34.318-16.913,56.59-10.375,75.123,21.99v18.907c-5.949,8.736-10.032,20.141-18.131,25.8-88.74,62.019-179.875,119.831-284.408,152.481Z" transform="translate(3908.472 -1211.516)" fill="#c9acff"/>
    <path id="Path_6790" data-name="Path 6790" d="M-574.543,1317.543c4.225-8.58,11.038-12.112,20.65-12.011,28.8.286,57.606-.1,86.4.185,16.566.168,20.476,4.419,20.5,21.225q.116,91.805,0,183.612c-.021,17.224-4.161,21.585-21.5,21.751-27.9.271-55.827.737-83.688-.358-7.563-.3-14.916-5.927-22.365-9.108Zm86.1,178.413c10.239-.283,19.369-9.476,18.167-19.221-1.323-10.714-7.953-17.086-18.744-17.788-10.014-.653-18.615,8.661-18.547,19.045C-507.493,1488.819-499.572,1496.26-488.438,1495.956Z" transform="translate(3917.373 -1210.521)" fill="#c9acff"/>
    <path id="Path_6791" data-name="Path 6791" d="M-169.144,1142.389c-.565-8.5-1.527-16.979-2.671-25.427-2.189-16.306-11.4-22.968-27.811-22.006-4.123.246-9.569-2.207-12.466-5.257-4.285-4.511-5.823-9.748-.623-16.391,15.259-19.5,13.967-26.8-5.153-42.365-3.482-2.839-6.908-5.747-10.437-8.511-13.391-10.476-24.367-8.966-36.465,3.387-3.191,3.265-9.39,4.909-14.222,4.916-7.172.009-11.278-4.7-10.693-12.406.973-12.884-5.152-21.283-16.562-26.379h-10.805c-4.342.887-8.654,2.294-13.032,2.568-24.98,1.545-29.425,6.342-30.436,30.6-.159,4.019-4.256,9.53-7.973,11.259-3.681,1.707-10.315,1.114-13.685-1.266-20.535-14.495-26.593-13.994-42.532,5.457-3.7,4.52-7.711,8.813-11.071,13.579-8.388,11.889-7.162,20.923,3.578,30.766,4.567,4.188,10.956,6.273,7.871,15.929-2.946,9.209-8.277,9.748-15.677,10.721-18.826,2.472-24.394,9.843-22.837,29.151.5,6.266,1.708,12.465,2.294,18.724,1.482,15.939,8.6,22.7,24.187,22.185,7.1-.237,13.08-1.6,17.629,7.333,4.651,9.144-.689,13.165-4.9,18.582-10.343,13.324-9.645,22.432,2.936,33.757,4.01,3.6,8.294,6.9,12.5,10.267,18.969,15.2,25.348,14.609,41.919-2.547,2.313-2.4,7.8-3.937,10.825-2.917,4.265,1.442,10.163,5.1,10.937,8.748,6.3,29.68,7.362,30.857,36.88,28.8,4.936-.349,9.871-.782,14.751-1.559,14.42-2.292,19.836-9.01,19.478-23.949-.17-6.936-1.935-13.2,7.266-17.7,8.994-4.405,13.1.454,18.658,4.635,14.09,10.59,24.621,9.289,36.012-4.4,4.888-5.878,10.013-11.587,14.476-17.77,7.588-10.5,6.22-22.828-3.529-31.323-5.059-4.405-10.324-7.03-7.6-16.21,3.057-10.269,9.871-9.834,17.542-10.466C-176.542,1163.763-168.285,1155.091-169.144,1142.389Zm-69.522-3.359c-.18,44-34.908,77.646-79.593,77.11-42.373-.51-76.45-35.6-75.959-78.208.491-43.156,35.333-76.817,79.093-76.431A76.747,76.747,0,0,1-238.666,1139.03Z" transform="translate(3911.103 -1192.871)" fill="#c9acff"/>
    <path id="Path_6792" data-name="Path 6792" d="M-.781,1202.467c3.42,9.4,7.042,16.44,19.675,15.241,10.174-.967,9.1,9.029,9.284,16.023.16,6.222,3.706,15.492-6.719,15.773-12.6.342-15.757,7.666-17.314,17.659,13.976,14.738,13.187,14.642,3.331,28.465-10.812,15.167-17.92,2.689-25.988-2.025-9.553,3.127-16.826,6.145-15.864,19.116.894,12.074-10.779,9.057-18.244,9.927-7.153.833-14.15.653-13.991-9.37.114-7.142-2.113-11.11-9.729-13.64-7.3-2.425-10.411.143-14.57,5.016-8.84,10.363-14.782,1.007-21.242-3.834-6.131-4.591-11.7-9.293-4.345-17.344,2.108-2.31,3.844-4.96,6.044-7.834-2.76-9.752-6.314-16.365-19.5-15.829-11.36.459-8.816-11.224-9.556-18.825-.632-6.5-.861-12.132,8.532-13.474,16.557-2.369,19.85-12.248,8.763-24.839-9.114-10.347,1.621-14.956,5.729-21.4,4.289-6.725,9.651-9.218,16.515-2.928,4.753,4.356,9.007,6.854,16.31,2.844,6.584-3.614,7.4-7.275,6.635-13.752-1.194-10.108,6.35-12.043,13.938-12.02,7.2.021,16.5-4.74,19.04,8.287,3.25,16.692,12.9,19.949,24.729,8.862,10.894-10.206,15.612,2.034,22.424,5.887,6.726,3.809,7.846,9.38,2.628,15.663C3.453,1196.867,1.328,1199.758-.781,1202.467Zm-54.5,69.736a33.619,33.619,0,0,0,33.236-33.643c-.1-18.343-15.071-32.739-33.917-32.613-19.239.124-33.12,14.167-32.877,33.256C-88.6,1258.083-74.164,1272.278-55.282,1272.2Z" transform="translate(3892.894 -1202.025)" fill="#c9acff"/>
    <path id="Path_6793" data-name="Path 6793" d="M-378.067,1141.706c1.083-37.964,30.9-65.331,69.967-64.221,35.844,1.016,64.288,31.875,63.161,68.521-1.117,36.363-32.633,65.384-69.521,64.031C-350.607,1208.708-379.108,1178.094-378.067,1141.706Zm38.852,23.212c-2.536,11.044-1.4,18.633,11.969,18.631,2.321,0,4.357,4.34,7.028,5.37,4.075,1.571,8.59,2,12.918,2.921-.538-9.272,8.146-7.254,12.478-10.644,4.923-3.851,10.482-9.052,12.016-14.687,5.693-20.935-3.711-31.824-26.911-33.992-3.646-.337-7.037-3.378-10.546-5.171,3.463-2.034,6.771-5.41,10.42-5.829,7.81-.9,15.8-.276,23.99-.276v-15.686c-4.762-1.152-9.363-1.583-13.3-3.429-3.429-1.606-5.79-6.119-9.207-6.955-3.552-.866-8.07.531-11.667,2.088-2.761,1.2-4.423,4.771-7.136,6.269-12.4,6.835-17.869,18.551-14.407,32.77,3.209,13.181,12.964,17.051,25.3,17.483,4.611.159,9.177,1.62,13.764,2.489q-.123,3.244-.246,6.486C-314.6,1163.459-326.442,1164.159-339.215,1164.917Z" transform="translate(3906.319 -1197.685)" fill="#c9acff"/>
  </g>
</svg>
