<svg xmlns="http://www.w3.org/2000/svg" width="142" height="109.947" viewBox="0 0 142 109.947">
  <g id="mail" transform="translate(-4.14 -7.268)">
    <path id="Path_5482" data-name="Path 5482" d="M141.427,7.268H8.853A4.718,4.718,0,0,0,4.14,11.986v9.487A1.613,1.613,0,0,0,5,22.615l69.683,39.8a1.182,1.182,0,0,0,1.183-.01l67.578-39.757c.379-.21,1.388-.774,1.767-1.03.456-.312.927-.594.927-1.153V11.986a4.718,4.718,0,0,0-4.713-4.713Z" transform="translate(0 0)" fill="#eca3ff"/>
    <path id="Path_5483" data-name="Path 5483" d="M63.948,12.959a1.188,1.188,0,0,0-1.188.005l-38.241,22.5a1.173,1.173,0,0,0-.266,1.819L62.5,78.514a1.178,1.178,0,0,0,2.039-.8V13.978a1.178,1.178,0,0,0-.589-1.025Z" transform="translate(81.603 22.816)" fill="#eca3ff"/>
    <path id="Path_5484" data-name="Path 5484" d="M93.668,19.006a1.173,1.173,0,0,0-1.46-.215L76.881,27.811a5.978,5.978,0,0,1-5.917.041l-13.488-7.7a1.178,1.178,0,0,0-1.383.159L4.862,67.814a1.178,1.178,0,0,0,.21,1.88,4.592,4.592,0,0,0,2.346.692H138.635A1.182,1.182,0,0,0,139.5,68.4Z" transform="translate(1.43 46.83)" fill="#eca3ff"/>
    <path id="Path_5485" data-name="Path 5485" d="M46.248,37.944a1.178,1.178,0,0,0-.21-1.885L5.9,13.135A1.178,1.178,0,0,0,4.14,14.16V74.315a1.173,1.173,0,0,0,1.977.861L46.248,37.944Z" transform="translate(0 23.562)" fill="#eca3ff"/>
  </g>
</svg>
