<svg xmlns="http://www.w3.org/2000/svg" width="534.399" height="475.681" viewBox="0 0 534.399 475.681">
  <g id="Group_2381" data-name="Group 2381" transform="translate(0)">
    <path id="Path_5479" data-name="Path 5479" d="M-658.3,603.831c9,33.568,17.879,66.71,26.915,100.418h-5.347q-152.01,0-304.013.006c-29.081,0-48.662,19.521-48.7,48.56q-.057,53.1-.013,106.191v4.95c-18.06,7.124-37.13-1.938-42.11-20.2-11.734-43.044-23.187-86.162-34.739-129.255a6,6,0,0,1,.058-1.351Q-862.72,658.613-658.3,603.831Z" transform="translate(1086.248 -511.888)" fill="#f5acff"/>
    <path id="Path_5480" data-name="Path 5480" d="M-1069.366,712.784c-2.151-8.625-4.8-16.662-6.073-24.91-2.337-15.135,7.951-29.337,23.639-33.567q44.377-11.969,88.785-23.8Q-834.16,596-705.3,561.531c18.056-4.825,34.063,4.4,39.122,22.317,1.78,6.3,3.42,12.63,5.268,19.488Q-865.177,658.065-1069.366,712.784Z" transform="translate(1075.769 -560.26)" fill="#f5acff"/>
    <path id="Path_5481" data-name="Path 5481" d="M-944.61,787.036c-8.214.339-12.708,4.832-13.044,13.041-.319,7.955,5.591,13.717,13.549,13.59A12.914,12.914,0,0,0-931,800.584C-930.875,792.608-936.638,786.721-944.61,787.036Zm42.242,67.043c-7.956-.15-13.777,5.8-13.336,13.777.442,8.19,5.043,12.6,13.232,12.832,7.932.211,13.629-5.823,13.357-15.489C-889.96,858.973-894.052,854.248-902.368,854.079Zm-16.164-44.82c2.448,2.785,2.808,3.629,3.336,3.733,30.451,6.268,61.174,10.973,92.235,6.394,16.1-2.362,29.65-10.254,38.006-28.277C-830.434,797.292-873.648,803.159-918.532,809.259Zm0,0c2.448,2.785,2.808,3.629,3.336,3.733,30.451,6.268,61.174,10.973,92.235,6.394,16.1-2.362,29.65-10.254,38.006-28.277C-830.434,797.292-873.648,803.159-918.532,809.259Zm-26.078-22.222c-8.214.339-12.708,4.832-13.044,13.041-.319,7.955,5.591,13.717,13.549,13.59A12.914,12.914,0,0,0-931,800.584C-930.875,792.608-936.638,786.721-944.61,787.036Zm42.242,67.043c-7.956-.15-13.777,5.8-13.336,13.777.442,8.19,5.043,12.6,13.232,12.832,7.932.211,13.629-5.823,13.357-15.489C-889.96,858.973-894.052,854.248-902.368,854.079ZM-634.329,658.42H-989.748c-19.923.022-33.111,13.146-33.111,32.941q-.031,101.068-.021,202.115c0,20.448,13,33.468,33.424,33.468q177.7.03,355.4.02c21.1,0,33.952-12.787,33.971-33.783V692.775C-600.083,671.1-612.724,658.42-634.329,658.42Zm-268.25,237.229c-14.73-.149-28.256-13.864-28.106-28.425.165-14.729,13.841-28.256,28.423-28.108,14.751.149,28.236,13.78,28.086,28.424C-874.322,882.229-888.041,895.8-902.579,895.649Zm66.726-60.921c-29.143-.866-58.157-5.3-87.236-7.977a46.13,46.13,0,0,0-14.159.443c-14.159,3.188-28.167-3.587-33.212-16.669a27.973,27.973,0,0,1,13.082-34.8c13.167-6.836,28.254-2.575,36.759,9.728,2.362,3.417,6.264,7.323,9.959,7.914,6.458,1.054,9.791-3.756,12.727-9.729,7.509-15.256,16.27-29.88,24.242-44.926,1.225-2.343,2.178-6.2,1.1-8.189-5.992-10.952-12.638-21.544-19.815-33.53-16.583,9.411-31.693,18.065-46.844,26.609-10.826,6.12-12.387,5.7-18.97-5.169-6.689-11.037-13.209-22.156-19.9-33.193-2.808-4.643-4.557-9.9,1.623-12.05,2.637-.907,8.356,2.152,10.34,5.022,6.964,9.96,12.9,20.637,20.028,32.37,7.618-4.156,14.832-8.02,21.985-12.007,9.116-5.107,18.317-10.107,27.243-15.575,6.9-4.239,11.5-2.763,15.364,4.117,5.485,9.728,11.709,19.011,16.963,28.844,3.607,6.733,6.777,7.682,14.624,5.127,11.968-3.9,24.966-5.675,37.6-6.182,10.973-.444,13.272,5.4,6.944,14.856-9.9,14.793-20.2,29.291-30.241,43.976-1.857,2.722-3.353,5.7-6.2,10.614,20.3-2.657,38.067-5.317,55.943-7.134,6.18-.631,12.575.8,18.863,1.289-1.266,6.185-1.308,12.957-4.008,18.424C-784.239,823.564-807.448,835.592-835.853,834.728Zm85.84,20.807c-2.848,13.568-6.879,26.906-10.405,40.368-1.769,6.732-5.527,8.841-12.423,6.816-13-3.84-26.318-6.709-39.187-10.952-3.232-1.056-5.279-5.761-7.853-8.8,3.737-1.456,7.618-4.431,11.164-4.073,7.409.719,14.622,3.206,25.006,5.718-4.6-8.229-7.7-13.841-10.868-19.435-2.721-4.852-6.309-9.454-7.955-14.645-.883-2.806,1.5-6.647,2.4-10.023,3.207,1.18,7.7,1.412,9.412,3.713,4.747,6.416,8.294,13.7,12.406,20.575,1.944,3.228,4.052,6.351,7.722,12.028,2.852-9.6,4.411-17.218,7.494-24.14,1.477-3.292,5.848-5.255,8.93-7.828C-752.69,848.445-749.36,852.388-750.013,855.535Zm118.931-52.522c-.209,12.934-8.947,21.692-21.924,21.756q-28.651.127-57.333-.022c-13.044-.063-21.653-8.8-21.757-21.8-.042-7.134-.084-14.286.019-21.42.19-11.605,8.484-20.385,20.092-20.784,10.107-.339,20.259-.064,30.387-.064V760.6c9.41,0,18.822-.063,28.229.02,13.53.127,22.183,8.8,22.308,22.284C-631.02,789.591-630.978,796.3-631.082,803.012Zm-287.451,6.246c2.448,2.785,2.808,3.629,3.336,3.733,30.451,6.268,61.174,10.973,92.235,6.394,16.1-2.362,29.65-10.254,38.006-28.277C-830.434,797.292-873.648,803.159-918.532,809.259Zm16.164,44.82c-7.956-.15-13.777,5.8-13.336,13.777.442,8.19,5.043,12.6,13.232,12.832,7.932.211,13.629-5.823,13.357-15.489C-889.96,858.973-894.052,854.248-902.368,854.079Zm-42.242-67.043c-8.214.339-12.708,4.832-13.044,13.041-.319,7.955,5.591,13.717,13.549,13.59A12.914,12.914,0,0,0-931,800.584C-930.875,792.608-936.638,786.721-944.61,787.036Zm0,0c-8.214.339-12.708,4.832-13.044,13.041-.319,7.955,5.591,13.717,13.549,13.59A12.914,12.914,0,0,0-931,800.584C-930.875,792.608-936.638,786.721-944.61,787.036Zm26.078,22.222c2.448,2.785,2.808,3.629,3.336,3.733,30.451,6.268,61.174,10.973,92.235,6.394,16.1-2.362,29.65-10.254,38.006-28.277C-830.434,797.292-873.648,803.159-918.532,809.259Zm0,0c2.448,2.785,2.808,3.629,3.336,3.733,30.451,6.268,61.174,10.973,92.235,6.394,16.1-2.362,29.65-10.254,38.006-28.277C-830.434,797.292-873.648,803.159-918.532,809.259Zm-26.078-22.222c-8.214.339-12.708,4.832-13.044,13.041-.319,7.955,5.591,13.717,13.549,13.59A12.914,12.914,0,0,0-931,800.584C-930.875,792.608-936.638,786.721-944.61,787.036Z" transform="translate(1134.482 -451.283)" fill="#f5acff"/>
  </g>
</svg>
