<svg xmlns="http://www.w3.org/2000/svg" width="256" height="383.462" viewBox="0 0 256 383.462">
  <g id="Group_2215" data-name="Group 2215" transform="translate(-7223.47 1649.719)">
    <g id="Group_8" data-name="Group 8" transform="translate(6383.296 -1871.819)">
      <g id="Group_7" data-name="Group 7" transform="translate(840.174 222.1)">
        <g id="Ellipse_78" data-name="Ellipse 78" transform="translate(58.614 58.623)">
          <g id="Group_2" data-name="Group 2">
            <path id="Path_7" data-name="Path 7" d="M921.208,299a15.717,15.717,0,0,1-4.145,4.145l134.62,134.62a15.719,15.719,0,0,1,4.146-4.145Z" transform="translate(-917.063 -299)" fill="#105099"/>
          </g>
          <g id="Group_3" data-name="Group 3" transform="translate(126.056 126.049)">
            <path id="Path_8" data-name="Path 8" d="M1103.917,507.343a21.5,21.5,0,1,1,21.5-21.5A21.5,21.5,0,0,1,1103.917,507.343Zm0-37.13a15.634,15.634,0,1,0,15.634,15.634A15.634,15.634,0,0,0,1103.917,470.213Z" transform="translate(-1082.42 -464.348)" fill="#105099"/>
          </g>
        </g>
        <g id="Group_4" data-name="Group 4" transform="translate(28.335 28.336)">
          <path id="Path_9" data-name="Path 9" d="M898.841,302.265a21.5,21.5,0,1,1,21.5-21.5A21.5,21.5,0,0,1,898.841,302.265Zm0-37.129a15.634,15.634,0,1,0,15.633,15.633,15.634,15.634,0,0,0-15.633-15.633Z" transform="translate(-877.343 -259.27)" fill="#105099"/>
        </g>
        <g id="Ellipse_74" data-name="Ellipse 74" transform="translate(28.335)">
          <path id="Path_10" data-name="Path 10" d="M1081.686,222.1h-63.745v5.862h61.32l29.549,29.55V442.69l-29.549,29.55h-60.1l-97.253-98.492A15.687,15.687,0,0,1,918,378.133l98.713,99.969h64.973l32.985-32.984V255.087Z" transform="translate(-887.006 -222.1)" fill="#105099"/>
          <g id="Group_5" data-name="Group 5" transform="translate(0 122.137)">
            <path id="Path_11" data-name="Path 11" d="M898.841,425.312a21.5,21.5,0,1,1,21.5-21.5A21.5,21.5,0,0,1,898.841,425.312Zm0-37.13a15.634,15.634,0,1,0,15.633,15.634A15.634,15.634,0,0,0,898.841,388.182Z" transform="translate(-877.343 -382.317)" fill="#105099"/>
          </g>
        </g>
        <g id="Ellipse_77" data-name="Ellipse 77">
          <path id="Path_12" data-name="Path 12" d="M846.036,442.69V257.515l29.551-29.55h60.105l97.719,97.718a15.717,15.717,0,0,1,4.146-4.145L938.121,222.1H873.158l-32.984,32.984V445.118L873.158,478.1h63.749V472.24h-61.32Z" transform="translate(-840.174 -222.1)" fill="#105099"/>
          <g id="Group_6" data-name="Group 6" transform="translate(184.67 90.869)">
            <path id="Path_13" data-name="Path 13" d="M1103.917,384.3a21.5,21.5,0,1,1,21.5-21.5A21.5,21.5,0,0,1,1103.917,384.3Zm0-37.125a15.633,15.633,0,1,0,15.634,15.633,15.633,15.633,0,0,0-15.634-15.633Z" transform="translate(-1082.42 -341.3)" fill="#105099"/>
          </g>
        </g>
      </g>
    </g>
    <g id="Group_1" data-name="Group 1" transform="translate(6383.296 -1967.694)">
      <path id="Path_1" data-name="Path 1" d="M887.458,666.689,849.266,619.7v46.991h-9.091V602.694h6.365l38.193,46.991V602.694h9.094v63.995Z" fill="#1a2027"/>
      <path id="Path_2" data-name="Path 2" d="M959,657.778l6.638,4.845a19.411,19.411,0,0,1-7.911,7.267,23.4,23.4,0,0,1-11.095,2.789,22.325,22.325,0,0,1-16.323-6.4,21.527,21.527,0,0,1-6.5-16,21.767,21.767,0,0,1,6.365-16,21.548,21.548,0,0,1,15.914-6.4,21.908,21.908,0,0,1,10.275,2.516,22.318,22.318,0,0,1,7.912,6.811L957.9,642.6q-4.638-6.49-11.821-6.491a13.018,13.018,0,0,0-9.73,4.023,13.97,13.97,0,0,0-3.911,10.148,13.718,13.718,0,0,0,4,10.239,13.921,13.921,0,0,0,10.185,3.931Q953.994,664.452,959,657.778Z" transform="translate(-19.875 -5.986)" fill="#1a2027"/>
      <path id="Path_3" data-name="Path 3" d="M1041.787,613.444a2.146,2.146,0,0,1,1.629.686,2.17,2.17,0,0,1,.681,1.64,2.065,2.065,0,0,1-.66,1.586,2.259,2.259,0,0,1-3.892-1.586,2.223,2.223,0,0,1,.664-1.657,2.043,2.043,0,0,1,1.578-.665m0-1.914a3.937,3.937,0,0,0-2.942,1.244,4.152,4.152,0,0,0-1.2,2.992,4.036,4.036,0,0,0,1.2,2.958,3.99,3.99,0,0,0,2.942,1.211,4.1,4.1,0,0,0,2.973-1.211A3.978,3.978,0,0,0,1046,615.77a4.092,4.092,0,0,0-1.238-2.992A4.045,4.045,0,0,0,1041.787,611.534Z" transform="translate(-46.932 -2.101)" fill="#1a2027"/>
      <path id="Path_4" data-name="Path 4" d="M1062.76,666.735l4.456-6.4a20.309,20.309,0,0,0,12.64,4.754,9.1,9.1,0,0,0,5.229-1.508,4.531,4.531,0,0,0,2.228-3.888,4.161,4.161,0,0,0-.727-2.423,5.32,5.32,0,0,0-2.228-1.737,21.651,21.651,0,0,0-2.91-1.1q-1.411-.411-3.729-1.006t-3.774-1.051q-9.82-3.291-9.821-11.062,0-6.49,4.726-9.965a18.232,18.232,0,0,1,11.095-3.474,21.7,21.7,0,0,1,14.186,4.754l-4.456,6.217a15.045,15.045,0,0,0-9.185-3.383,9.821,9.821,0,0,0-5.5,1.463,4.5,4.5,0,0,0-2.228,3.931,3.235,3.235,0,0,0,1.864,3.017,27.061,27.061,0,0,0,5.775,2.011,54.717,54.717,0,0,1,5.365,1.692,29.816,29.816,0,0,1,4.82,2.423,11.284,11.284,0,0,1,3.956,3.977,10.794,10.794,0,0,1,1.409,5.531,11.507,11.507,0,0,1-4.683,9.508,17.7,17.7,0,0,1-11.231,3.659A26.453,26.453,0,0,1,1062.76,666.735Z" transform="translate(-52.903 -5.984)" fill="#1a2027"/>
      <path id="Path_5" data-name="Path 5" d="M1130.848,602.694v23.9a19.509,19.509,0,0,1,28.1,2.926c2.788,3.536,4.259,8.489,4.259,15.131v22.043h-8.639v-22.5c0-4.51-.926-7.695-2.622-9.829a10.6,10.6,0,0,0-8.821-4.206q-7.277,0-12.273,6.125l.076,30.409h-8.64l-.076-63.995Z" transform="translate(-67.033)" fill="#1a2027"/>
      <path id="Path_6" data-name="Path 6" d="M1026.771,627.883v4.845a19.85,19.85,0,0,0-13.367-4.845,20.149,20.149,0,0,0-10.458,2.744,21.879,21.879,0,0,0-8,8.136,23.676,23.676,0,0,0-.046,22.993,21.605,21.605,0,0,0,7.957,8.091,20.458,20.458,0,0,0,10.731,2.834,18.953,18.953,0,0,0,13.188-4.845v4.845h8.363v-44.8Zm-.273,30.443a13.993,13.993,0,0,1-11.731,6.125,13.554,13.554,0,0,1-10.139-4.159,13.84,13.84,0,0,1-4.046-10.011,14.186,14.186,0,0,1,3.864-10.011,12.877,12.877,0,0,1,9.867-4.16,14.57,14.57,0,0,1,12.186,6.125Zm5.722,12.321h-2.526V629.915h2.526Z" transform="translate(-36.071 -5.986)" fill="#1a2027"/>
    </g>
    <g id="Group_10" data-name="Group 10" transform="translate(7270.352 -1281)">
      <path id="Path_14" data-name="Path 14" d="M899.221,709.528h.858v11.557h-.858Z" transform="translate(-899.221 -709.033)"/>
      <path id="Path_15" data-name="Path 15" d="M904.131,716.743v-.033a4.212,4.212,0,0,1,4.095-4.408,4.048,4.048,0,0,1,3.467,2.013v-5.448h.809v12.052h-.809v-1.882a4.066,4.066,0,0,1-3.467,2.08,4.181,4.181,0,0,1-4.095-4.375Zm7.611-.017v-.033a3.516,3.516,0,0,0-3.434-3.616,3.291,3.291,0,0,0-3.3,3.6v.034a3.387,3.387,0,0,0,3.3,3.632,3.523,3.523,0,0,0,3.434-3.614Z" transform="translate(-900.45 -708.867)"/>
      <path id="Path_16" data-name="Path 16" d="M918.627,717.873v-.033a4.15,4.15,0,0,1,3.995-4.391c2.362,0,3.863,1.914,3.863,4.408a2.077,2.077,0,0,1-.016.329h-6.984a3.339,3.339,0,0,0,3.3,3.318,3.779,3.779,0,0,0,2.889-1.32l.562.494a4.421,4.421,0,0,1-3.483,1.585,4.185,4.185,0,0,1-4.128-4.392Zm6.984-.413c-.116-1.7-1.09-3.269-3.022-3.269a3.282,3.282,0,0,0-3.1,3.269Z" transform="translate(-904.08 -710.014)"/>
      <path id="Path_17" data-name="Path 17" d="M931.341,719.642v-.033c0-1.75,1.5-2.741,3.681-2.741a10.152,10.152,0,0,1,2.791.364v-.364c0-1.7-1.04-2.575-2.773-2.575a5.647,5.647,0,0,0-2.641.675l-.3-.709a6.764,6.764,0,0,1,2.988-.727,3.641,3.641,0,0,1,2.659.924,3.2,3.2,0,0,1,.858,2.377v5.251h-.792v-1.4a3.832,3.832,0,0,1-3.219,1.6C933.025,722.284,931.341,721.393,931.341,719.642Zm6.488-.71v-.958a11.144,11.144,0,0,0-2.857-.38c-1.782,0-2.773.793-2.773,1.965v.033c0,1.223,1.156,1.932,2.443,1.932,1.716,0,3.189-1.056,3.189-2.591Z" transform="translate(-907.265 -710.034)"/>
      <path id="Path_18" data-name="Path 18" d="M943.942,721.021l.479-.644a4.939,4.939,0,0,0,3.021,1.105c1.14,0,2.031-.627,2.031-1.6v-.033c0-.991-1.056-1.354-2.228-1.684-1.37-.4-2.889-.808-2.889-2.311v-.032c0-1.354,1.139-2.327,2.774-2.327a5.682,5.682,0,0,1,2.988.924l-.429.675a4.837,4.837,0,0,0-2.592-.842c-1.156,0-1.915.627-1.915,1.469v.034c0,.942,1.139,1.288,2.344,1.635,1.353.379,2.773.874,2.773,2.36v.033c0,1.5-1.288,2.459-2.906,2.459A5.763,5.763,0,0,1,943.942,721.021Z" transform="translate(-910.421 -710.026)"/>
      <path id="Path_19" data-name="Path 19" d="M961.526,724.46l.28-.709a2.937,2.937,0,0,0,1.436.314c.876,0,1.453-.512,2.081-1.982l-4.047-8.37h.941l3.5,7.528,3.038-7.528h.891L966,722.43c-.743,1.767-1.6,2.394-2.807,2.394A3.793,3.793,0,0,1,961.526,724.46Z" transform="translate(-914.762 -710.081)"/>
      <path id="Path_20" data-name="Path 20" d="M973.991,717.89v-.033a4.348,4.348,0,0,1,4.341-4.408,4.305,4.305,0,0,1,4.31,4.375v.034a4.348,4.348,0,0,1-4.343,4.407,4.3,4.3,0,0,1-4.309-4.374Zm7.776,0v-.033a3.53,3.53,0,0,0-3.467-3.649,3.473,3.473,0,0,0-3.433,3.615v.034a3.529,3.529,0,0,0,3.467,3.647,3.473,3.473,0,0,0,3.434-3.614Z" transform="translate(-917.945 -710.014)"/>
      <path id="Path_21" data-name="Path 21" d="M988.637,718.863v-5.151h.809v5a2.571,2.571,0,0,0,2.674,2.872,2.887,2.887,0,0,0,2.924-3.005V713.71h.809v8.42h-.809v-1.568a3.3,3.3,0,0,1-3.038,1.767,3.207,3.207,0,0,1-3.369-3.465Z" transform="translate(-921.611 -710.08)"/>
      <path id="Path_22" data-name="Path 22" d="M1008.2,717.89v-.033a4.372,4.372,0,0,1,4.292-4.408A4.424,4.424,0,0,1,1015.86,715l-.578.594a3.792,3.792,0,0,0-2.807-1.387,3.479,3.479,0,0,0-3.4,3.615v.034a3.54,3.54,0,0,0,3.472,3.65,3.758,3.758,0,0,0,2.823-1.4l.562.495a4.317,4.317,0,0,1-7.726-2.707Z" transform="translate(-926.513 -710.014)"/>
      <path id="Path_23" data-name="Path 23" d="M1020.63,719.642v-.033c0-1.75,1.5-2.741,3.681-2.741a10.15,10.15,0,0,1,2.791.364v-.364c0-1.7-1.04-2.574-2.773-2.574a5.641,5.641,0,0,0-2.641.674l-.3-.709a6.762,6.762,0,0,1,2.988-.726,3.634,3.634,0,0,1,2.658.924,3.2,3.2,0,0,1,.859,2.377v5.251h-.792v-1.4a3.835,3.835,0,0,1-3.22,1.6C1022.316,722.284,1020.63,721.392,1020.63,719.642Zm6.488-.71v-.958a11.172,11.172,0,0,0-2.857-.38c-1.783,0-2.773.793-2.773,1.964v.033c0,1.222,1.156,1.932,2.444,1.932,1.712,0,3.189-1.056,3.189-2.591Z" transform="translate(-929.626 -710.034)"/>
      <path id="Path_24" data-name="Path 24" d="M1034.2,713.644h.809v1.565a3.3,3.3,0,0,1,3.038-1.766,3.205,3.205,0,0,1,3.367,3.466v5.152h-.808v-5a2.571,2.571,0,0,0-2.674-2.873,2.888,2.888,0,0,0-2.923,3v4.873h-.808Z" transform="translate(-933.024 -710.012)"/>
      <path id="Path_25" data-name="Path 25" d="M1053.54,717.89v-.033a4.372,4.372,0,0,1,4.293-4.408A4.424,4.424,0,0,1,1061.2,715l-.578.594a3.791,3.791,0,0,0-2.806-1.387,3.479,3.479,0,0,0-3.4,3.615v.034a3.54,3.54,0,0,0,3.466,3.647,3.759,3.759,0,0,0,2.823-1.4l.562.495a4.318,4.318,0,0,1-7.727-2.707Z" transform="translate(-937.867 -710.014)"/>
      <path id="Path_26" data-name="Path 26" d="M1065.97,719.642v-.033c0-1.75,1.5-2.741,3.682-2.741a10.124,10.124,0,0,1,2.79.363v-.363c0-1.7-1.04-2.575-2.773-2.575a5.648,5.648,0,0,0-2.642.675l-.3-.709a6.774,6.774,0,0,1,2.989-.726,3.638,3.638,0,0,1,2.658.924,3.192,3.192,0,0,1,.858,2.377v5.251h-.793v-1.4a3.831,3.831,0,0,1-3.219,1.6C1067.649,722.284,1065.97,721.393,1065.97,719.642Zm6.488-.71v-.958a11.142,11.142,0,0,0-2.855-.38c-1.784,0-2.774.793-2.774,1.965v.033c0,1.223,1.155,1.932,2.443,1.932,1.713,0,3.182-1.056,3.182-2.591Z" transform="translate(-940.98 -710.034)"/>
      <path id="Path_27" data-name="Path 27" d="M1078.57,721.021l.479-.644a4.938,4.938,0,0,0,3.021,1.105c1.139,0,2.03-.627,2.03-1.6v-.033c0-.991-1.057-1.354-2.229-1.684-1.37-.4-2.889-.808-2.889-2.311v-.032c0-1.354,1.14-2.327,2.774-2.327a5.683,5.683,0,0,1,2.989.924l-.429.675a4.838,4.838,0,0,0-2.592-.842c-1.155,0-1.915.627-1.915,1.469v.034c0,.942,1.139,1.288,2.344,1.635,1.354.379,2.773.874,2.773,2.36v.033c0,1.5-1.288,2.459-2.905,2.459A5.775,5.775,0,0,1,1078.57,721.021Z" transform="translate(-944.136 -710.026)"/>
      <path id="Path_28" data-name="Path 28" d="M1090.49,708.867h.808v5.2a3.3,3.3,0,0,1,3.038-1.766,3.207,3.207,0,0,1,3.369,3.466v5.151h-.81v-5a2.571,2.571,0,0,0-2.674-2.873,2.886,2.886,0,0,0-2.923,3v4.872h-.809Z" transform="translate(-947.121 -708.867)"/>
      <path id="Path_29" data-name="Path 29" d="M1109.83,717.89v-.033a4.326,4.326,0,1,1,8.651-.034v.034a4.348,4.348,0,0,1-4.342,4.407,4.3,4.3,0,0,1-4.309-4.374Zm7.776,0v-.033a3.53,3.53,0,0,0-3.467-3.649,3.473,3.473,0,0,0-3.435,3.615v.034a3.531,3.531,0,0,0,3.468,3.647,3.474,3.474,0,0,0,3.431-3.614Z" transform="translate(-951.964 -710.014)"/>
      <path id="Path_30" data-name="Path 30" d="M1124.7,713.644h.808v1.565a3.3,3.3,0,0,1,3.038-1.766,3.206,3.206,0,0,1,3.368,3.466v5.152h-.809v-5a2.571,2.571,0,0,0-2.674-2.873,2.888,2.888,0,0,0-2.924,3v4.873h-.808Z" transform="translate(-955.688 -710.012)"/>
    </g>
  </g>
</svg>
