<svg id="calendar-solid" xmlns="http://www.w3.org/2000/svg" width="68.299" height="64.029" viewBox="0 0 68.299 64.029">
  <path id="Path_6860" data-name="Path 6860" d="M66.563,6H58.026v6.4a4.7,4.7,0,1,1-9.391,0V6H23.77v6.4a4.7,4.7,0,1,1-9.391,0V6H5.842A3.8,3.8,0,0,0,2,9.863V57.629a3.8,3.8,0,0,0,3.735,3.863H66.563A3.8,3.8,0,0,0,70.3,57.629V9.863A3.8,3.8,0,0,0,66.563,6ZM19.075,48.686H14.806V44.418h4.269Zm0-10.672H14.806V33.746h4.269Zm0-10.672H14.806V23.075h4.269ZM31.881,48.686H27.612V44.418h4.269Zm0-10.672H27.612V33.746h4.269Zm0-10.672H27.612V23.075h4.269ZM44.686,48.686H40.418V44.418h4.269Zm0-10.672H40.418V33.746h4.269Zm0-10.672H40.418V23.075h4.269ZM57.492,48.686H53.224V44.418h4.269Zm0-10.672H53.224V33.746h4.269Zm0-10.672H53.224V23.075h4.269Z" transform="translate(-2 2.537)" fill="#7cacdb"/>
  <path id="Path_6861" data-name="Path 6861" d="M11.134,19.074a2.134,2.134,0,0,0,2.134-2.134V4.134A2.134,2.134,0,1,0,9,4.134V16.94A2.134,2.134,0,0,0,11.134,19.074Z" transform="translate(5.941 -2)" fill="#7cacdb"/>
  <path id="Path_6862" data-name="Path 6862" d="M27.134,19.074a2.134,2.134,0,0,0,2.134-2.134V4.134a2.134,2.134,0,1,0-4.269,0V16.94A2.134,2.134,0,0,0,27.134,19.074Z" transform="translate(24.09 -2)" fill="#7cacdb"/>
</svg>
