<svg id="email-solid" xmlns="http://www.w3.org/2000/svg" width="64.497" height="48.394" viewBox="0 0 64.497 48.394">
  <path id="Path_6854" data-name="Path 6854" d="M61.719,6.011a4.031,4.031,0,0,0-.826,0H4.458a4.031,4.031,0,0,0-1.068.161l29.124,29Z" transform="translate(-0.447 -5.989)" fill="#b75abf"/>
  <path id="Path_6855" data-name="Path 6855" d="M66.185,7.39,36.839,36.615a4.031,4.031,0,0,1-5.684,0l-29.084-29A4.031,4.031,0,0,0,1.93,8.619V48.93a4.031,4.031,0,0,0,4.031,4.031H62.4a4.031,4.031,0,0,0,4.031-4.031V8.619A4.031,4.031,0,0,0,66.185,7.39ZM8.722,48.93h-2.8V46.048L20.574,31.516l2.842,2.842Zm53.633,0H59.534L44.84,34.358l2.842-2.842L62.335,46.048Z" transform="translate(-1.93 -4.567)" fill="#b75abf"/>
</svg>
