<svg id="Group_2839" data-name="Group 2839" xmlns="http://www.w3.org/2000/svg" width="86.364" height="86.683" viewBox="0 0 86.364 86.683">
  <path id="Path_6827" data-name="Path 6827" d="M-356.577,1980.958h-36.111c-2.472,0-2.473,0-2.473-2.564,0-4.583-.1-9.167.02-13.746.257-9.749-4.026-16.514-13.222-20.408,1.127-2.27,2.271-4.539,3.382-6.825.974-2.006.425-2.9-1.8-2.935-1.73-.026-3.46-.005-5.3-.005v-30.9h40.156v5.514c0,2.388-.006,4.776,0,7.163.008,2.4.3,2.713,2.648,2.718,4.187.01,8.374,0,12.7,0Zm-27.782-63.223h.035a27.465,27.465,0,0,0-.08-4.633,2.612,2.612,0,0,0-1.693-1.783,13.585,13.585,0,0,1-8.4-3.506c-1.641-1.484-2.939-1.292-4.5.08a12.652,12.652,0,0,1-8.244,3.34c-1.415.029-1.876.852-1.863,2.154.026,2.581-.019,5.163.014,7.744a10.72,10.72,0,0,0,5.482,9.6,61.036,61.036,0,0,0,5.557,3.117,3.461,3.461,0,0,0,2.619.056,60.038,60.038,0,0,0,6.047-3.428,10.527,10.527,0,0,0,5-8.1A42.067,42.067,0,0,0-384.359,1917.736Zm21.637,21.518H-401.27v2.868h38.549Zm-27.759,18.315h27.7v-2.8h-27.7Zm27.762,12.676h-27.707v2.864h27.707Zm-10.836-7.742H-390.42v2.853h16.865Zm10.829-38.769H-378v2.857h15.27Zm-15.312,10.608h15.317v-2.866h-15.317ZM-379.758,1947h-15.317v2.865h15.317Zm17.037,0h-13.768v2.866h13.768Zm-7.585,18.318h7.574v-2.955h-7.574Z" transform="translate(442.942 -1903.58)" fill="#fff"/>
  <path id="Path_6828" data-name="Path 6828" d="M-591.435,2232.443c-7.284,0-14.569.037-21.853-.046a3.368,3.368,0,0,1-2.574-1.072,2.94,2.94,0,0,1,.608-2.675c3.216-3.213,4.047-7.015,3.737-11.427-.294-4.17-.08-8.379-.059-12.57a15.987,15.987,0,0,1,10.38-14.892,11.177,11.177,0,0,1,3.555-.673c3.673-.085,7.373.242,11.017-.092,6.346-.583,13.495,5.186,14.87,12.2a37.808,37.808,0,0,1,.428,6.727c.061,4.449.076,8.9-.012,13.347a5.778,5.778,0,0,0,1.4,4.239,20.854,20.854,0,0,1,2.529,3.408,3.06,3.06,0,0,1,.409,2.4,2.869,2.869,0,0,1-2.2,1.073C-576.609,2232.475-584.022,2232.443-591.435,2232.443Zm1.554-12.313.833-.084c3.306-.358,5.5-2.708,5.335-5.71s-2.584-5.1-5.908-5.133c-.9-.01-1.807,0-2.71,0-2.65,0-3.718-.651-3.75-2.28s1.085-2.369,3.659-2.369q3.545,0,7.085,0v-3.114h-4.479c-.065-1.136-.119-2.067-.172-2.991H-592.9c-.066,1.019-.126,1.958-.188,2.924-.347.036-.6.059-.846.088-3.192.368-5.348,2.674-5.242,5.607.108,3,2.523,5.18,5.813,5.231.9.014,1.807,0,2.71,0,2.76,0,3.884.7,3.849,2.375-.035,1.628-1.1,2.275-3.754,2.276h-6.953v3.178h4.462c.049,1.093.088,1.977.129,2.895h3.041Z" transform="translate(615.991 -2145.769)" fill="#fff"/>
  <path id="Path_6829" data-name="Path 6829" d="M-499,2128.994c-.973,1.949-1.8,3.745-2.778,5.461a1.888,1.888,0,0,1-1.419.591c-3.742.048-7.486.055-11.227-.007a2.041,2.041,0,0,1-1.522-.74c-.953-1.654-1.743-3.4-2.687-5.305Z" transform="translate(533.369 -2094.881)" fill="#fff"/>
  <path id="Path_6830" data-name="Path 6830" d="M-116.289,1932.442h-9.233v-9.26Z" transform="translate(199.747 -1920.215)" fill="#fff"/>
  <path id="Path_6831" data-name="Path 6831" d="M-371.976,1954.151l9.3-4.283,9.265,4.277c0,2.131.134,4.711-.039,7.271a7.029,7.029,0,0,1-3.346,5.6c-1.622,1.039-3.3,2-5.017,2.875a2.189,2.189,0,0,1-1.731,0c-1.662-.838-3.284-1.77-4.856-2.77a7.4,7.4,0,0,1-3.57-6.466C-372.006,1958.342-371.976,1956.028-371.976,1954.151Zm7.839-.458v2.909h2.874v-2.909Zm-4.649,7.455h2.862v-2.853h-2.862Zm9.359-2.848v2.931h2.793V1958.3Zm-4.714,7.6h2.883v-2.851h-2.883Z" transform="translate(408.914 -1942.862)" fill="#fff"/>
</svg>
