<svg id="Group_2835" data-name="Group 2835" xmlns="http://www.w3.org/2000/svg" width="87.876" height="87.746" viewBox="0 0 87.876 87.746">
  <path id="Path_5019" data-name="Path 5019" d="M978.383,258.873c-6.807.691-13.573,1.7-21.3,2.716,1.085-1.872,1.656-3.005,2.362-4.042,3.825-5.593,7.747-11.114,11.516-16.747,2.411-3.6,1.535-5.826-2.644-5.657a53.5,53.5,0,0,0-14.321,2.355c-2.989.972-4.195.611-5.569-1.953-2-3.745-4.372-7.281-6.461-10.985-1.471-2.62-3.222-3.182-5.85-1.567-3.4,2.081-6.9,3.986-10.375,5.931-2.724,1.519-5.472,2.989-8.373,4.573-2.717-4.468-4.975-8.534-7.626-12.328-.756-1.093-2.933-2.258-3.938-1.913-2.354.82-1.688,2.821-.619,4.589,2.548,4.2,5.031,8.438,7.578,12.641,2.507,4.139,3.1,4.3,7.225,1.969,5.77-3.255,11.524-6.549,17.84-10.134,2.732,4.565,5.264,8.6,7.546,12.769.41.755.048,2.226-.418,3.118-3.037,5.73-6.372,11.3-9.233,17.109-1.117,2.274-2.387,4.107-4.845,3.7-1.407-.225-2.893-1.712-3.794-3.014a10.663,10.663,0,1,0-6.332,15.9,17.549,17.549,0,0,1,5.392-.169c11.073,1.021,22.123,2.708,33.221,3.038,10.817.329,19.657-4.251,24.679-14.393,1.029-2.081,1.045-4.661,1.527-7.016C983.173,259.178,980.738,258.632,978.383,258.873Zm-60.247,13.878a4.867,4.867,0,0,1-5.159-5.175c.128-3.126,1.84-4.838,4.966-4.966a4.866,4.866,0,0,1,5.183,5.159A4.918,4.918,0,0,1,918.136,272.751Zm46.135,2.178c-11.829,1.744-23.53-.048-35.126-2.435-.2-.04-.337-.362-1.269-1.422,17.092-2.322,33.55-4.556,50.869-6.911A17.768,17.768,0,0,1,964.271,274.929Z" transform="translate(-904.207 -219.193)" fill="#fff"/>
  <path id="Path_5020" data-name="Path 5020" d="M994.182,315.355c-1.751-3.138-2.937-5.276-4.136-7.406-1.043-1.85-2.4-3.6-3.029-5.575-.339-1.071.565-2.535.909-3.822,1.226.452,2.936.545,3.586,1.422,1.808,2.437,3.161,5.209,4.727,7.83.736,1.232,1.547,2.42,2.938,4.581,1.09-3.658,1.683-6.556,2.859-9.194.556-1.249,2.228-2,3.394-2.98.568,1.363,1.835,2.871,1.585,4.063-1.082,5.174-2.622,10.252-3.964,15.373-.672,2.566-2.106,3.371-4.731,2.6-4.954-1.463-10.021-2.555-14.92-4.167-1.233-.406-2.008-2.2-2.994-3.35,1.423-.558,2.9-1.688,4.257-1.555C987.48,313.449,990.231,314.4,994.182,315.355Z" transform="translate(-919.172 -234.779)" fill="#fff"/>
  <path id="Path_5021" data-name="Path 5021" d="M949.42,308.721c-.053,5.592-5.278,10.763-10.818,10.7-5.605-.059-10.762-5.276-10.7-10.828.06-5.61,5.267-10.757,10.825-10.7C944.343,297.95,949.472,303.144,949.42,308.721Zm-5.693-.9c-.319-2.372-1.88-4.171-5.045-4.231a4.833,4.833,0,0,0-5.081,5.245c.171,3.123,1.923,4.8,5.044,4.884C941.666,313.8,943.837,311.512,943.727,307.825Z" transform="translate(-908.859 -234.65)" fill="#fff"/>
</svg>
