<svg id="Group_2845" data-name="Group 2845" xmlns="http://www.w3.org/2000/svg" width="64.496" height="62.018" viewBox="0 0 64.496 62.018">
  <g id="Subtraction_1" data-name="Subtraction 1" transform="translate(22.874 0)" fill="none">
    <path d="M24.948,42.62l0,0a21.479,21.479,0,0,0,1.559-8.069A21.61,21.61,0,0,0,0,13.518a21.594,21.594,0,1,1,24.952,29.1Z" stroke="none"/>
    <path d="M 26.53245735168457 41.13356018066406 C 30.2602367401123 39.88956069946289 33.60451126098633 37.57220840454102 36.08859634399414 34.48214721679688 C 39.01202774047852 30.84552955627441 40.62203979492188 26.26739883422852 40.62203979492188 21.59108924865723 C 40.62203979492188 10.2371187210083 31.38492774963379 0.9999988675117493 20.0309886932373 0.9999988675117493 C 15.84427833557129 0.9999988675117493 11.81521797180176 2.248718738555908 8.379378318786621 4.611148834228516 C 5.543280124664307 6.561211585998535 3.263826370239258 9.154708862304688 1.709299921989441 12.18184947967529 C 2.768566370010376 12.03134155273438 3.841521024703979 11.95542907714844 4.916677951812744 11.95542907714844 C 17.37342834472656 11.95542907714844 27.50772857666016 22.08975791931152 27.50772857666016 34.54653930664062 C 27.50772857666016 36.80024719238281 27.18048858642578 39.00753021240234 26.53245735168457 41.13356018066406 M 24.94761848449707 42.61977767944336 L 24.94917869567871 42.61594009399414 C 25.98334884643555 40.05101776123047 26.50772857666016 37.33609008789062 26.50772857666016 34.54653930664062 C 26.50772857666016 22.64115905761719 16.82200813293457 12.95542907714844 4.916677951812744 12.95542907714844 C 3.256547927856445 12.95542907714844 1.60234797000885 13.14463901519775 -2.009887793974485e-06 13.51779842376709 C 1.59280800819397 9.569528579711914 4.295298099517822 6.205729007720947 7.812798023223877 3.787138938903809 C 11.41607761383057 1.309578895568848 15.64107799530029 -1.160278316092445e-06 20.0309886932373 -1.160278316092445e-06 C 31.93632888793945 -1.160278316092445e-06 41.62203979492188 9.685729026794434 41.62203979492188 21.59108924865723 C 41.62203979492188 26.49446868896484 39.93368911743164 31.29509925842285 36.86798858642578 35.10868835449219 C 33.8489875793457 38.8641471862793 29.61700820922852 41.53128814697266 24.9516773223877 42.61882781982422 L 24.94761848449707 42.61977767944336 Z" stroke="none" fill="#ff7d7d"/>
  </g>
  <circle id="Ellipse_106" data-name="Ellipse 106" cx="22.326" cy="22.326" r="22.326" transform="translate(0 17.365)" fill="#ff5e5e"/>
</svg>
