<svg xmlns="http://www.w3.org/2000/svg" width="78.783" height="99.731" viewBox="0 0 78.783 99.731">
  <g id="Group_2841" data-name="Group 2841" transform="translate(-1640.778 -3382.962)">
    <path id="Path_6884" data-name="Path 6884" d="M1704.221,3382.962c4.245,1.506,7.993,3.7,10.556,7.564a2.086,2.086,0,0,0,.846.57c5.208,2.5,7.291,6.932,7.619,12.417a16.208,16.208,0,0,1-.1,2.948c-.312,2.5-.482,4.717.819,7.3,2.179,4.326-.11,9.6-4.187,12.068a5.782,5.782,0,0,0-1.794,2.463,27.358,27.358,0,0,1-9.456,11.367c-7.654,5.054-16.63,3.908-22.795-3.142-2.33-2.664-4.034-5.873-6.044-8.819a5.037,5.037,0,0,0-1.408-1.694,9.409,9.409,0,0,1-5.254-10.215,6.706,6.706,0,0,1,2.578-4.881,2.82,2.82,0,0,0,.844-1.965c.6-13.681,8.082-21.77,20.75-25.688.109-.034.179-.193.267-.294Zm4.884,15.6c-7.694,8.31-17.5,10.507-28.16,10.588-.725,10.066,1.954,18.708,9.3,25.522,5.167,4.792,11.8,4.729,17.193.214a24.47,24.47,0,0,0,7.714-11.582c1.019-3.24,2.346-6.808,1.89-9.994C1716.246,3407.726,1713.289,3402.817,1709.105,3398.563Z" transform="translate(-18.544 0)" fill="#40a6c9"/>
    <path id="Path_6885" data-name="Path 6885" d="M1644.261,3561.677c-2.621-1.526-3.651-3.717-3.461-6.812.318-5.178-.227-10.456.545-15.548,1.437-9.481,7.6-15.262,16.5-18.066,7.642-2.411,7.7-2.23,13.872,2.891,1.617,1.341,3.216,2.7,4.736,3.982-.485,1.86-.956,3.6-1.392,5.352-.705,2.836-.393,3.491,2.389,4.894l-4.023,23.307Z" transform="translate(0 -78.984)" fill="#40a6c9"/>
    <path id="Path_6886" data-name="Path 6886" d="M1745.2,3561.262q-1.481-7.958-2.958-15.917c-.455-2.472-.875-4.95-1.3-7.387,3.252-1.473,3.606-2.317.919-10.185,3.256-2.708,6.534-5.457,9.849-8.161a2.146,2.146,0,0,1,1.482-.563c6.371,1.292,12.657,2.789,17.444,7.708a22.244,22.244,0,0,1,6.717,16.087c-.01,4.085-.11,8.174.037,12.254.1,2.853-.865,4.908-3.446,6.164Z" transform="translate(-57.836 -78.569)" fill="#40a6c9"/>
  </g>
</svg>
