<svg xmlns="http://www.w3.org/2000/svg" width="134.475" height="126.444" viewBox="0 0 134.475 126.444">
  <g id="Group_2392" data-name="Group 2392" transform="translate(0 0)">
    <path id="Path_6811" data-name="Path 6811" d="M1187.122-255.838c14.767.014,23.3,7.577,26.167,22.869a14.346,14.346,0,0,0,3.01,6.114c2.9,3.542,2.2,10.44-1.64,15.61-1.823,2.457-3,5.382-4.654,7.978-3.452,5.425-6.277,11.518-10.722,15.986-7.288,7.327-16.956,7.035-24.6.036a45.612,45.612,0,0,1-7.668-9.922c-3.249-5.309-6-10.918-8.989-16.389-3.049-5.6-2.55-9.277,1.582-14.6.864-1.112.966-2.882,1.227-4.382C1163.568-248.211,1172.167-255.852,1187.122-255.838Z" transform="translate(-1128.188 255.838)" fill="#105099"/>
    <path id="Path_6812" data-name="Path 6812" d="M1172.434-186.525c-.18,9.083,3.562,17.782,10.038,24.741,3.481-5.276,5.169-10.367.509-16.04-2.446-2.977-1.73-5.23,2.728-5.1,3.085.094,6.177.018,10.709.018-3.281,7.525-9.124,14.054-1.29,21.143,4.016-7.267,10.853-13.5,9.326-23.658,4.514,3.93,5.836,7.765,4.134,13.7-3.783,13.2,1.974,24.565,16.768,34.331-6.254,1.124-11.526,2.362-16.87,2.981a163.364,163.364,0,0,1-74.31-8.138c-3.792-1.342-5.23-2.862-4.2-7.2,2.264-9.587,7.792-15.9,16.941-19.231,2.969-1.078,5.978-2.058,8.908-3.233C1162.483-174.879,1168.34-178.6,1172.434-186.525Z" transform="translate(-1129.649 259.67)" fill="#105099"/>
    <path id="Path_6813" data-name="Path 6813" d="M1206.491-164.887a26.965,26.965,0,0,1,26.942-26.758,26.927,26.927,0,0,1,26.442,26.753c.115,14.6-12.247,26.841-26.956,26.7A26.879,26.879,0,0,1,1206.491-164.887Zm26.8-21.9a21.9,21.9,0,0,0-22.143,21.912,21.933,21.933,0,0,0,22.191,21.9,21.73,21.73,0,0,0,21.782-21.68A21.694,21.694,0,0,0,1233.29-186.792Z" transform="translate(-1125.401 259.387)" fill="#105099"/>
    <path id="Path_6814" data-name="Path 6814" d="M1236.531-163.087c-3.33,3.568,2.26,10.26-6.325,10.387-.166-3.309-.32-6.39-.5-10.124l-10.008-.442c-.4-8.85,6.776-3.015,10-6.285V-177.6c5.02-1.13,5.02-1.13,5.711,8.426,2.434,3.157,9.892-2.9,9.8,6.083Z" transform="translate(-1124.671 260.136)" fill="#105099"/>
  </g>
</svg>
