<svg xmlns="http://www.w3.org/2000/svg" width="54.294" height="62.114" viewBox="0 0 54.294 62.114">
  <path id="Path_6910" data-name="Path 6910" d="M846.934,544.364a27.154,27.154,0,1,0-44.625,21.656l.082,6.425.1,7.759,5.734-5.234,4-3.64a27.373,27.373,0,0,0,7.574,1.068,26.9,26.9,0,0,0,4.359-.349c-.007-.294-.014-.588-.014-.883A27.165,27.165,0,0,1,846.934,544.364Zm-37.8-2.586a1.926,1.926,0,1,1,1.929,1.923A1.927,1.927,0,0,1,809.13,541.778Zm18.378,10.654a7.881,7.881,0,0,1-15.313,0,1.634,1.634,0,0,1-.041-.356,1.514,1.514,0,0,1,2.99-.335,4.848,4.848,0,0,0,9.408,0,1.518,1.518,0,1,1,2.956.691Zm1.006-8.731a1.926,1.926,0,1,1,1.93-1.923A1.924,1.924,0,0,1,828.514,543.7Z" transform="translate(-792.64 -518.09)" fill="#fff"/>
</svg>
