<svg xmlns="http://www.w3.org/2000/svg" width="54.307" height="62.114" viewBox="0 0 54.307 62.114">
  <path id="Path_6909" data-name="Path 6909" d="M869.937,558.03a27.153,27.153,0,1,0,7.575,53.239l4,3.64,5.734,5.234.1-7.759.082-6.425a27.155,27.155,0,0,0-17.482-47.93Zm-10.66,23.681a1.926,1.926,0,1,1,1.922,1.929A1.925,1.925,0,0,1,859.276,581.711Zm18.372,10.66a7.879,7.879,0,0,1-15.306,0,1.688,1.688,0,0,1-.041-.362,1.513,1.513,0,0,1,2.99-.329,4.851,4.851,0,0,0,9.408,0,1.515,1.515,0,1,1,2.949.691Zm1.013-8.731a1.926,1.926,0,1,1,1.923-1.929A1.926,1.926,0,0,1,878.661,583.641Z" transform="translate(-842.78 -558.03)" fill="#fff"/>
</svg>
