<svg xmlns="http://www.w3.org/2000/svg" width="64.889" height="64.863" viewBox="0 0 64.889 64.863">
  <path id="Path_6912" data-name="Path 6912" d="M689.873,1332.676a32.445,32.445,0,1,1-32.073-32.431A32.364,32.364,0,0,1,689.873,1332.676Zm-38.4,16c1.351,0,2.59.005,3.83,0,1.174-.006.916.135,1.161-.961q2.984-13.359,5.949-26.72c.313-1.407.618-2.815.942-4.293-.244-.017-.424-.039-.6-.039-1.206,0-2.412.016-3.616-.011-.445-.01-.6.145-.7.58q-3.011,13.642-6.054,27.278C652.081,1345.861,651.791,1347.218,651.474,1348.675Zm-.184-7.211-9.105-8.852,8.879-8.861-3.291-3.325-12.23,12.229,12.274,12.274Zm21.348-8.7-8.957,8.732,3.394,3.369,12.243-12.243L667.1,1320.4l-3.407,3.417Z" transform="translate(-624.983 -1300.242)" fill="#d94aff"/>
</svg>
