<svg xmlns="http://www.w3.org/2000/svg" width="88.614" height="89.072" viewBox="0 0 88.614 89.072">
  <path id="Path_6908" data-name="Path 6908" d="M745.744,191.121c-1.1,1.7-3.087,3.635-4.9,3.9-3.53.5-3.938,2.236-3.874,5.168.148,7.2.077,14.4.035,21.607-.035,6.328-3.424,10.005-9.717,10.308-4.057.19-8.128.028-12.192.042-2.468.014-3.551-1.153-3.523-3.649.071-5.92.042-11.847.007-17.768-.028-4.978-1.638-6.694-6.638-6.862-12.747-.443-11.411,1.737-11.334,10.715.035,4.408-.056,8.824.021,13.24.056,3.073-1.231,4.472-4.388,4.359-3.713-.134-7.432.056-11.145-.056-6.56-.2-10.308-3.994-10.378-10.561-.077-7.551-.091-15.1.021-22.654.035-2.236-.549-3.248-2.932-3.677-6.314-1.132-8.824-8.142-4.324-12.761,12.073-12.4,24.391-24.56,36.7-36.73,1.188-1.174,2.946-1.758,4.437-2.616h1.392c2.77,2.018,5.836,3.741,8.254,6.117,10.877,10.638,21.593,21.452,32.322,32.238C746.855,184.758,747.762,188.042,745.744,191.121Z" transform="translate(-658.198 -143.12)" fill="#fff"/>
</svg>
