<svg xmlns="http://www.w3.org/2000/svg" width="61.587" height="61.834" viewBox="0 0 61.587 61.834">
  <path id="Path_6913" data-name="Path 6913" d="M-255.916,682.105h-16.743v11.132h5.554v-5.5h5.59v5.511h5.592v-5.493h11.211v16.692H-306.3V687.716h27.92v-5.592h-16.663c-.542-5.091.593-9.544,4.315-13.169,3.762-3.665,8.408-4.286,13.391-3.887a11.8,11.8,0,0,1-7.479-4.934,10.891,10.891,0,0,1-1.661-8.732,11.278,11.278,0,0,1,12.031-8.746A11.337,11.337,0,0,1-264.3,652.944a11.493,11.493,0,0,1-9.349,12.13c1.145,0,2.292.038,3.435-.006a14.143,14.143,0,0,1,14.277,12.714A38.762,38.762,0,0,1-255.916,682.105Z" transform="translate(306.298 -642.617)" fill="#5fabd6"/>
</svg>
