<svg xmlns="http://www.w3.org/2000/svg" width="61.833" height="61.834" viewBox="0 0 61.833 61.834">
  <path id="phone" d="M8.018,25.111l-.082-.238C6.08,19.56,4.5,12.3,4.5,7.935A3.445,3.445,0,0,1,7.935,4.5H18.241a6.87,6.87,0,0,1,6.87,6.87v6.87a6.87,6.87,0,0,1-6.87,6.87H15.364A55.149,55.149,0,0,0,45.722,55.467V52.593a6.87,6.87,0,0,1,6.87-6.87h6.87a6.87,6.87,0,0,1,6.87,6.87V62.9A4.008,4.008,0,0,1,62.9,66.334c-5.927,0-11.817-1.566-17.176-3.435A62.356,62.356,0,0,1,8.018,25.111Z" transform="translate(-4.5 -4.5)" fill="#72c7ec" fill-rule="evenodd"/>
</svg>
