<svg xmlns="http://www.w3.org/2000/svg" width="88.614" height="86.682" viewBox="0 0 88.614 86.682">
  <path id="Path_6911" data-name="Path 6911" d="M-295.937,1074.295c.8.544,2.154,1.335,3.356,2.319,5.482,4.486,12.316,5.552,16.761,1.141,4.47-4.436,8.263-3.173,12.472-.691,2.875,1.7,5.548,3.742,8.263,5.7,1.943,1.4,2.365,3.3,1.787,5.605a13.523,13.523,0,0,0,9.548,16.808c2.423.713,3.911,1.945,3.986,4.532.149,5.141.4,10.285.322,15.423-.038,2.469-1.578,4.1-4.028,5.039-8.048,3.072-11.162,8.906-9.3,17.271.474,2.133.042,3.868-1.8,5.006-4.386,2.706-8.823,5.329-13.265,7.943a3.741,3.741,0,0,1-4.951-.861c-5.948-6.237-14.422-6.338-20.407-.3a5.963,5.963,0,0,1-5.464.8,150.142,150.142,0,0,1-13.454-8.038c-1.868-1.189-1.969-3.1-1.511-5.135,1.824-8.106-2.039-14.486-9.979-17.143a5.838,5.838,0,0,1-3.293-3.425,32.732,32.732,0,0,1-.1-16.776,7.257,7.257,0,0,1,3.722-4.215c8.086-3.483,11.1-8.96,9.461-17.613-.233-1.227.04-3.312.847-3.851,4.9-3.276,10.024-6.226,15.089-9.258A7.782,7.782,0,0,1-295.937,1074.295Zm12.535,28.367a14.9,14.9,0,0,0-15.131,14.782A14.916,14.916,0,0,0-284,1132.237c8.443.145,15.148-6.089,15.274-14.2C-268.591,1109.3-274.812,1102.78-283.4,1102.662Z" transform="translate(328.043 -1074.295)" fill="#fff"/>
</svg>
