<svg id="Group_2084" data-name="Group 2084" xmlns="http://www.w3.org/2000/svg" width="88.615" height="88.728" viewBox="0 0 88.615 88.728">
  <path id="Path_5008" data-name="Path 5008" d="M685.5,319.667c-.456-.281-1.122-1.033-1.645-.945-1.232.207-3.322.663-3.423,1.289-.4,2.412-1.73,2.921-3.732,2.677-2.187-.268-5.182,1.3-5.843-2.729-.09-.549-2.865-1.431-3.675-.948-2.923,1.745-3.8-.823-5.243-2.077-1.293-1.127-2.88-2.244-1.312-4.442,1.411-1.977.4-3.579-1.647-4-3.234-.67-1.995-3.078-2.074-4.823-.072-1.565-.84-3.636,1.954-4.195,2.371-.473,3.1-2.128,1.663-4.234-1.549-2.277.373-3.3,1.589-4.376,1.249-1.1,2.022-3.629,4.567-2.047,2.222,1.381,3.91.915,4.566-1.722.784-3.156,3.275-1.745,4.967-1.731,1.308.011,3.306.815,3.77,1.828,1.037,2.268,2.23,3.079,4.31,1.729,2.7-1.752,3.557.8,4.887,1.987,1.3,1.159,3.239,2.159,1.441,4.629-1.291,1.773-.525,3.576,1.741,3.948,3.384.555,1.908,3.081,2.01,4.785.091,1.522,1.007,3.685-1.89,4.163-2.511.414-2.911,2.009-1.809,4.222C691.624,314.567,687.852,319.8,685.5,319.667Zm-9.787-9.9a5.6,5.6,0,0,0,5.679-5.9,5.536,5.536,0,0,0-5.9-5.632,5.812,5.812,0,0,0-5.827,5.851A5.905,5.905,0,0,0,675.713,309.764Z" transform="translate(-655.348 -283.941)" fill="#c6f1ff"/>
  <path id="Path_5009" data-name="Path 5009" d="M765.839,350.109c0,7.735-.073,15.471.043,23.2.036,2.389-.559,3.339-3.166,3.36-9.167.074-9.166.173-9.166-9.094q0-20.35,0-40.7c0-4.246.462-4.678,4.724-4.708,7.561-.053,7.561-.053,7.561,7.586Z" transform="translate(-682.548 -294.373)" fill="#c6f1ff"/>
  <path id="Path_5010" data-name="Path 5010" d="M723.763,364.609c0-5,.04-9.995-.015-14.992-.028-2.547,1.107-3.585,3.652-3.687,8.654-.343,8.652-.4,8.652,8.312,0,8.448-.087,16.9.05,25.343.042,2.663-.5,3.783-3.513,3.75-8.826-.1-8.827.042-8.827-8.732Q723.761,369.606,723.763,364.609Z" transform="translate(-674.175 -301.02)" fill="#c6f1ff"/>
  <path id="Path_5011" data-name="Path 5011" d="M735.055,288.1a63.314,63.314,0,0,1-6.274,2.017c-.778.173-1.752-.536-2.637-.843.466-.728.768-1.844,1.423-2.117a75.61,75.61,0,0,1,10.029-3.616c.886-.231,2.911,1,3.205,1.938a82.925,82.925,0,0,1,2.4,10.749c.139.806-.589,1.763-.917,2.651-.766-.694-1.833-1.252-2.23-2.117a32.2,32.2,0,0,1-1.348-5.179c-.994,1.292-1.608,2.046-2.175,2.835-15.873,22.06-37.394,35.721-63.426,42.635a19.8,19.8,0,0,1-5.638.682c-.934-.03-1.838-1.017-2.755-1.571.828-.664,1.587-1.785,2.5-1.924,26.5-4.038,47.027-18.106,63.97-38.132,1.831-2.165,3.049-4.849,4.552-7.294Z" transform="translate(-657.591 -283.515)" fill="#c6f1ff"/>
  <path id="Path_5012" data-name="Path 5012" d="M699.118,405.346q-19.779,0-39.559,0a8.456,8.456,0,0,1-2.825-.112c-.754-.281-1.293-1.141-1.927-1.746.633-.607,1.168-1.469,1.921-1.751a8.44,8.44,0,0,1,2.825-.112q39.559,0,79.119,0a1.919,1.919,0,0,1,.708.012c1.356.6,2.7,1.227,4.043,1.847-1.344.622-2.682,1.77-4.033,1.783C725.967,405.4,712.542,405.346,699.118,405.346Z" transform="translate(-654.807 -316.68)" fill="#c6f1ff"/>
  <path id="Path_5013" data-name="Path 5013" d="M706.263,375.4c0,3.212-.075,6.427.027,9.635.062,1.956-.6,2.678-2.643,2.777-9.676.469-9.673.528-9.673-8.925,0-4.4.061-8.8-.02-13.2-.05-2.752,1.19-3.828,3.887-3.807,8.843.068,8.525-.746,8.425,8.171C706.247,371.834,706.264,373.618,706.263,375.4Z" transform="translate(-665.805 -305.53)" fill="#c6f1ff"/>
</svg>
