<svg id="Group_2327" data-name="Group 2327" xmlns="http://www.w3.org/2000/svg" width="87.876" height="44.887" viewBox="0 0 87.876 44.887">
  <path id="Path_6672" data-name="Path 6672" d="M290.014-501.105l-1.747.107-.051.184a2.309,2.309,0,0,0,.451.412,12.483,12.483,0,0,1,6.339,7.86,11.024,11.024,0,0,1,.2,6.134,4,4,0,0,1-2.456,2.691,8.631,8.631,0,0,1-3.587.717c-8.841-.035-17.684.03-26.525-.055a5,5,0,0,1-4.821-2.911,1.076,1.076,0,0,1-.12-.306c-.129-1.154-.314-2.307-.35-3.464a6.731,6.731,0,0,1,.292-2.278,14.225,14.225,0,0,1,4.829-7.327c.513-.382,1.02-.773,1.525-1.166.043-.033.05-.112.113-.262l-1.3-.088a5.869,5.869,0,0,1,.511-.768,11.706,11.706,0,0,0,2.491-5.464c.746-2.888.4-5.834.547-8.755a16.082,16.082,0,0,1,1.525-6.167,9.728,9.728,0,0,1,2.588-3.7,9.054,9.054,0,0,1,5.339-2.168c5.915-.235,8.558,3.647,9.782,7.286a22.524,22.524,0,0,1,1.011,8.177,21.119,21.119,0,0,0,1.266,8,13.413,13.413,0,0,0,1.593,2.564C289.6-501.635,289.766-501.436,290.014-501.105Zm-8.037-14a3.053,3.053,0,0,1,.179-.656,2.545,2.545,0,0,0,.032-2.532c-.354-.833-.714-.916-1.46-.381a29.261,29.261,0,0,1-7.241,3.957,41.662,41.662,0,0,1-4.336,1.18c-.948.223-1.249.564-1.06,1.525.094.476.239.941.349,1.414a12.153,12.153,0,0,0,3.713,6.656,6.1,6.1,0,0,0,6.416,1.272,7.732,7.732,0,0,0,4.048-3.534,15.272,15.272,0,0,0,2.284-7.828c.011-.826-.235-1.06-1.063-1.072C283.253-515.116,282.667-515.109,281.977-515.109Zm-.708,13.776c-.014-.135-.026-.2-.027-.262-.005-.282-.008-.564-.012-.846-.277.1-.556.186-.83.29a1.162,1.162,0,0,0-.218.15,6.423,6.423,0,0,1-7.862-.308,4.312,4.312,0,0,0-.953-.477l-.125.126.967,2.427c-.468-.05-.806-.076-1.14-.125s-.69-.151-1.039-.179a3.016,3.016,0,0,0-.667.092c.1.227.14.555.315.663a26.245,26.245,0,0,0,2.853,1.614,2.843,2.843,0,0,1,1.421,1.111c.62,1.068,1.238,2.138,1.868,3.2.381.644.69.677,1.118.067a14.874,14.874,0,0,0,1.175-1.913,4.481,4.481,0,0,1,3.018-2.782,4.769,4.769,0,0,0,2.477-1.906,2.374,2.374,0,0,0,.258-.844,3,3,0,0,0-.761-.2C282.5-501.433,281.886-501.37,281.269-501.333Z" transform="translate(-232.622 527.887)" fill="#c6f1ff"/>
  <path id="Path_6673" data-name="Path 6673" d="M85.143-331.427c-2.564,0-5.128.017-7.691-.006a8.352,8.352,0,0,1-3.966-.9,4.19,4.19,0,0,1-2.45-3.912c0-.331.012-.663,0-.995-.157-3.868,3.232-8.524,6.593-9.424.551-.148,1.084-.365,1.623-.555a.664.664,0,0,1,.92.392,4.909,4.909,0,0,0,3.058,2.451,9.676,9.676,0,0,0,7.219-.446,3.236,3.236,0,0,0,1.819-1.838c.2-.527.516-.655,1.085-.538a9.673,9.673,0,0,1,5.316,3.031c.569.621.587.7-.01,1.287a14.4,14.4,0,0,0-4.42,10.248c-.035,1.155-.108,1.225-1.273,1.225H85.143Z" transform="translate(-71.03 371.244)" fill="#c6f1ff"/>
  <path id="Path_6674" data-name="Path 6674" d="M532.782-339.644a3.187,3.187,0,0,0,.569-.563c1.255-2.1,2.517-4.188,3.724-6.312.607-1.069.88-1.236,2.064-.919,3.787,1.015,5.957,3.618,7.23,7.191a8.516,8.516,0,0,1,.263,4.5,4.557,4.557,0,0,1-3.831,3.68,17.39,17.39,0,0,1-3.286.365c-5.13.039-10.26.009-15.39.036-.619,0-.739-.221-.719-.77a14.111,14.111,0,0,0-2.828-8.76,16.843,16.843,0,0,0-2.024-2.184.623.623,0,0,1-.035-1.012,9.63,9.63,0,0,1,4.779-3.063,3.405,3.405,0,0,1,1.238-.12.951.951,0,0,1,.676.465,40.291,40.291,0,0,0,3.934,6.814c.13.2.445.289.675.43a2.972,2.972,0,0,0,.229-.691,12.959,12.959,0,0,0,.067-2.117,5.825,5.825,0,0,0-.465-1.462c-.068-.18-.24-.319-.318-.5-.166-.378-.059-.6.393-.573.309.02.618.069.926.058.744-.025,1.488-.084,2.232-.115a3.306,3.306,0,0,1,.551.067c-.038.183-.075.366-.115.548,0,.02-.025.036-.037.054-.306.476-.842.94-.871,1.432a26.573,26.573,0,0,0,.2,3.409Z" transform="translate(-458.937 371.512)" fill="#c6f1ff"/>
  <path id="Path_6675" data-name="Path 6675" d="M135.916-489.681c3.338-.312,6.733,2.621,7.372,6.015a12.81,12.81,0,0,1-3.455,11.941,5.266,5.266,0,0,1-6.15,1.2,8.925,8.925,0,0,1-3.306-3.176,12.124,12.124,0,0,1-1.929-5.429,10.459,10.459,0,0,1,.253-5.241,8.428,8.428,0,0,1,5.629-5.275,1,1,0,0,1,.262-.036C135.033-489.683,135.474-489.681,135.916-489.681Zm-5.832,9.8c-.738-.093-.872.3-.79.843a10.034,10.034,0,0,0,3.608,6.848,4.62,4.62,0,0,0,5.186.43c2.493-1.294,3.568-3.675,4.309-6.233a11.162,11.162,0,0,0,.271-1.354c.054-.343-.07-.567-.469-.517-.536.068-.616-.228-.6-.678.025-.861.017-1.723.006-2.584-.015-1.212-.648-1.672-1.77-1.3-.251.082-.5.158-.757.239a8.361,8.361,0,0,1-4.942.361c-.739-.211-1.485-.4-2.21-.656-.913-.319-1.355-.141-1.555.788a15.931,15.931,0,0,0-.275,2.091C130.049-481.061,130.084-480.511,130.084-479.878Z" transform="translate(-120.65 494.77)" fill="#c6f1ff"/>
  <path id="Path_6676" data-name="Path 6676" d="M566.47-490.15c3.416-.246,6.709,2.68,7.533,6.28a13.408,13.408,0,0,1-.632,6.973,10.958,10.958,0,0,1-3.081,4.934,5.428,5.428,0,0,1-7.666-.163,12.227,12.227,0,0,1-3.25-5.847,20.881,20.881,0,0,1-.474-4.373c-.171-3.45,2.88-6.851,5.8-7.62A11.2,11.2,0,0,1,566.47-490.15Zm5.971,8.208.164-.042a22.875,22.875,0,0,0-.612-2.387.84.84,0,0,0-1.263-.571,10,10,0,0,1-8.409.008c-.687-.307-1.045-.083-1.32.627a7.068,7.068,0,0,0-.283,3.4c.03.275.143.621-.33.622-.516,0-.575.317-.515.713a12.3,12.3,0,0,0,2.071,5.46,5.322,5.322,0,0,0,8.641.585,10.23,10.23,0,0,0,2.255-4.366,15.546,15.546,0,0,0,.383-1.93c.02-.134-.17-.429-.256-.426-.543.016-.542-.318-.527-.7C572.451-481.278,572.441-481.61,572.441-481.942Z" transform="translate(-494.167 495.169)" fill="#c6f1ff"/>
</svg>
