<svg id="Group_2087" data-name="Group 2087" xmlns="http://www.w3.org/2000/svg" width="88.613" height="88.575" viewBox="0 0 88.613 88.575">
  <path id="Path_5014" data-name="Path 5014" d="M705.651,477.4c-.363,7.112-4.514,11.367-11.635,11.626-5.7.216-11.411.216-17.1,0-7.285-.268-11.462-4.652-11.644-12.041q-.194-8.117,0-16.244c.191-7.544,4.523-11.877,12.066-12.066,5.265-.138,10.548-.095,15.813-.017,8.027.129,12.343,4.471,12.515,12.5.061,2.71.009,5.42.009,8.122S705.789,474.707,705.651,477.4Z" transform="translate(-665.145 -448.586)" fill="#c6f1ff"/>
  <path id="Path_5015" data-name="Path 5015" d="M705.655,532.585c-.259,7.371-4.411,11.747-11.7,12.006-5.688.207-11.4.216-17.1,0-7.112-.276-11.342-4.549-11.575-11.67-.19-5.688-.207-11.4.009-17.1.259-7.086,4.548-11.333,11.66-11.574,5.55-.19,11.117-.155,16.676-.009,7.535.19,11.782,4.531,12.023,12.1.086,2.7.017,5.42.017,8.122S705.75,529.884,705.655,532.585Z" transform="translate(-665.139 -456.187)" fill="#c6f1ff"/>
  <path id="Path_5016" data-name="Path 5016" d="M761.176,515.572c-.311-6.9-4.548-10.953-11.471-11.324-2.848-.156-5.706-.026-8.554-.026-2.71-.009-5.42-.069-8.121.009-7.587.216-11.981,4.454-12.188,11.954-.147,5.55-.165,11.117.009,16.666.224,7.138,4.4,11.454,11.505,11.739,5.835.233,11.7.25,17.521-.017,6.9-.311,11.048-4.549,11.307-11.471C761.408,527.267,761.434,521.407,761.176,515.572Zm-19.843-5.179h2.762c-.915,0-1.838.009-2.762.009h-2.805C739.468,510.393,740.4,510.393,741.332,510.393Z" transform="translate(-672.748 -456.194)" fill="#c6f1ff"/>
  <path id="Path_5017" data-name="Path 5017" d="M761.236,469.084c-.233,10.841-10,20.361-20.508,19.981-10.789-.388-19.869-9.606-19.878-20.188-.008-10.711,9.659-20.327,20.293-20.2C751.914,448.818,761.452,458.5,761.236,469.084Z" transform="translate(-672.763 -448.599)" fill="#c6f1ff"/>
</svg>
