<svg xmlns="http://www.w3.org/2000/svg" width="26.471" height="26.718" viewBox="0 0 26.471 26.718"><g transform="translate(0 0)"><path d="M850.892,558.03a8.111,8.111,0,1,0,2.263,15.9l1.194,1.087,1.713,1.564.029-2.318.025-1.919a8.112,8.112,0,0,0-5.222-14.318Zm-3.184,7.074a.575.575,0,1,1,.574.576A.575.575,0,0,1,847.708,565.1Zm5.488,3.184a2.353,2.353,0,0,1-4.572,0,.5.5,0,0,1-.012-.108.452.452,0,0,1,.893-.1,1.449,1.449,0,0,0,2.81,0,.452.452,0,1,1,.881.206Zm.3-2.608a.575.575,0,1,1,.574-.576A.575.575,0,0,1,853.5,565.68Z" transform="translate(-832.532 -549.866)" fill="#c6f1ff"/><path d="M808.858,525.939a8.111,8.111,0,1,0-13.33,6.469l.025,1.919.029,2.318,1.713-1.564,1.194-1.087a8.177,8.177,0,0,0,2.263.319,8.037,8.037,0,0,0,1.3-.1c0-.088,0-.176,0-.264A8.115,8.115,0,0,1,808.858,525.939Zm-11.293-.773a.575.575,0,1,1,.576.574A.576.576,0,0,1,797.566,525.166Zm5.49,3.182a2.354,2.354,0,0,1-4.574,0,.493.493,0,0,1-.012-.106.452.452,0,0,1,.893-.1,1.448,1.448,0,0,0,2.81,0,.453.453,0,1,1,.883.206Zm.3-2.608a.575.575,0,1,1,.576-.574A.575.575,0,0,1,803.356,525.74Z" transform="translate(-792.64 -518.09)" fill="#c6f1ff"/></g></svg>