<svg id="Group_2560" data-name="Group 2560" xmlns="http://www.w3.org/2000/svg" width="99.248" height="86.683" viewBox="0 0 99.248 86.683">
  <path id="Path_6824" data-name="Path 6824" d="M1088.208,1209.6a23.409,23.409,0,1,1,23.43,23.429A23.452,23.452,0,0,1,1088.208,1209.6Zm15.435,5.6c-.009.141-.019.215-.018.29a7.564,7.564,0,0,0,4.851,6.781.6.6,0,0,1,.469.685c-.032.876-.011,1.755-.011,2.659h5.375c0-.966.025-1.9-.01-2.835a.848.848,0,0,1,.54-.9,7.632,7.632,0,0,0-.247-13.557c-1.376-.727-2.76-1.438-4.124-2.188a2.294,2.294,0,0,1-1.091-2.7,2.339,2.339,0,0,1,4.531.176c.037.16.083.318.125.472h5.173a3.444,3.444,0,0,0,.018-.4,7.433,7.433,0,0,0-4.383-6.467.808.808,0,0,1-.541-.883c.032-.878.009-1.756.009-2.665h-5.375c0,.928-.021,1.825.01,2.721a.724.724,0,0,1-.495.793,7.337,7.337,0,0,0-4.441,7.107,7.257,7.257,0,0,0,3.966,6.5c1.455.817,2.955,1.554,4.416,2.359a2.285,2.285,0,0,1,1.08,2.7,2.336,2.336,0,0,1-4.549-.3c-.021-.123-.06-.242-.087-.35Z" transform="translate(-1062.062 -1166.289)" fill="#c6f1ff"/>
  <path id="Path_6825" data-name="Path 6825" d="M1040.649,1167.546c1.018-.989,2.039-1.955,3.031-2.95q7.044-7.062,14.071-14.14a1.151,1.151,0,0,1,1.356-.386,1.1,1.1,0,0,1,.6,1.167c-.01,2.16,0,4.321,0,6.48v.689h21.636v.622c0,3.287-.007,6.575.009,9.863a.689.689,0,0,1-.513.776,25.4,25.4,0,0,0-9.694,6.773,1.214,1.214,0,0,1-.8.363c-3.306.025-6.612.016-9.918.016h-.719v.962c0,2.1-.006,4.208,0,6.312a1.05,1.05,0,0,1-.621,1.1,1.078,1.078,0,0,1-1.27-.329q-8.5-8.55-17.01-17.1C1040.782,1167.735,1040.763,1167.7,1040.649,1167.546Z" transform="translate(-1040.649 -1149.976)" fill="#c6f1ff"/>
  <path id="Path_6826" data-name="Path 6826" d="M1168.541,1270.265h-21.578c-.017-.226-.04-.4-.04-.584,0-3.307.005-6.614-.011-9.92a.659.659,0,0,1,.508-.724,25.021,25.021,0,0,0,9.644-6.747,1.147,1.147,0,0,1,.965-.426c3.269.016,6.538.009,9.808.009h.7v-.682c0-2.18-.01-4.36,0-6.539,0-.98.8-1.526,1.563-1.09a1.45,1.45,0,0,1,.306.246q8.532,8.566,17.058,17.136c.026.026.044.06.272.3a1.661,1.661,0,0,0-.524.234q-8.3,8.317-16.592,16.646a2.145,2.145,0,0,1-.7.537c-.739.271-1.373-.263-1.377-1.144-.01-2.2,0-4.4,0-6.595Z" transform="translate(-1088.493 -1192.044)" fill="#c6f1ff"/>
</svg>
